<svg xmlns="http://www.w3.org/2000/svg" viewBox="0 0 384 512">
  <path fill="#e04f5a" d="M181.9 256.1c-5-.51-9.1-3-11.6-7.2c-2.7-4.4-3.1-8.5-1.2-13.2c3.7-8.9 16.4-10.7 24.4-10.5l14.1 .3c4.3 .1 8.3-1.9 11.1-5.2c2.9-3.3 4.3-7.9 3.9-12.4c-.9-9.4-9.6-16.8-19.1-17.2l-.2 0h-.3l-33.9 .5c-21.3 .3-37.5 18.3-41.7 38.2c-1.3 6.3-1.9 12.7-.8 19.1c.9 6.1 3.1 11.9 6.8 16.6c7.3 9.5 18.5 14.8 30.7 14.8h15.5c11.1 0 21.9 3.7 30.7 10.6l46 36.2c.6 .5 1.1 1.1 1.7 1.7l6.5-6.5c4.9-4.9 4.9-12.8 0-17.8c-.5-.5-1.1-1-1.7-1.4l-48.9-36.7l-13.5-1.7z"/>
  <path fill="#5975f6" d="M76 512V0H0v512h76z"/>
  <path fill="#000000" d="M383.2 464h-30l-49.1-49.1c-9-9.1-21.2-14.1-33.9-14.1H136.6c-12.7 0-24.9 5.1-33.9 14.1L53.6 464H24c-13.3 0-24 10.7-24 24s10.7 24 24 24H359.2c13.3 0 24-10.7 24-24s-10.7-24-24-24zM464 96H345.9a24 24 0 0 1-14-4.5L305 74c-5.9-4.5-13.2-7-20.8-7H96a32 32 0 0 0 -32 32v320a32 32 0 0 0 32 32h368c8.8 0 16-7.2 16-16V112c0-8.8-7.2-16-16-16z"/>
</svg>